<mxfile host="app.diagrams.net" modified="2022-06-17T06:48:32.052Z" agent="5.0 (Windows NT 10.0; Win64; x64) AppleWebKit/537.36 (KHTML, like Gecko) Chrome/102.0.0.0 Safari/537.36" etag="aoPP_ELsDgixe1lQnnQN" version="20.0.1" type="github">
  <diagram id="tZQSLerzgqbSVpl1F2v7" name="Page-1">
    <mxGraphModel dx="1585" dy="635" grid="1" gridSize="10" guides="1" tooltips="1" connect="1" arrows="1" fold="1" page="0" pageScale="1" pageWidth="850" pageHeight="1100" math="0" shadow="0">
      <root>
        <mxCell id="0" />
        <mxCell id="1" parent="0" />
        <mxCell id="2nstRJqUEvOJMMD9_jkf-1" value="" style="rounded=1;whiteSpace=wrap;html=1;fillColor=none;" vertex="1" parent="1">
          <mxGeometry x="-40" y="400" width="160" height="120" as="geometry" />
        </mxCell>
        <mxCell id="2nstRJqUEvOJMMD9_jkf-2" value="" style="rounded=1;whiteSpace=wrap;html=1;fillColor=none;" vertex="1" parent="1">
          <mxGeometry x="320" y="400" width="200" height="120" as="geometry" />
        </mxCell>
        <mxCell id="2nstRJqUEvOJMMD9_jkf-3" value="" style="shape=link;html=1;rounded=0;width=-4;exitX=1;exitY=0.5;exitDx=0;exitDy=0;entryX=0;entryY=0.5;entryDx=0;entryDy=0;startArrow=none;" edge="1" parent="1" source="2nstRJqUEvOJMMD9_jkf-18" target="2nstRJqUEvOJMMD9_jkf-2">
          <mxGeometry width="100" relative="1" as="geometry">
            <mxPoint x="180" y="459.5" as="sourcePoint" />
            <mxPoint x="280" y="459.5" as="targetPoint" />
          </mxGeometry>
        </mxCell>
        <mxCell id="2nstRJqUEvOJMMD9_jkf-4" value="Office Network" style="text;html=1;align=center;verticalAlign=middle;resizable=0;points=[];autosize=1;strokeColor=none;fillColor=none;" vertex="1" parent="1">
          <mxGeometry x="-40" y="380" width="90" height="20" as="geometry" />
        </mxCell>
        <mxCell id="2nstRJqUEvOJMMD9_jkf-5" value="Bridge" style="text;html=1;align=center;verticalAlign=middle;resizable=0;points=[];autosize=1;strokeColor=none;fillColor=none;" vertex="1" parent="1">
          <mxGeometry x="320" y="380" width="50" height="20" as="geometry" />
        </mxCell>
        <mxCell id="2nstRJqUEvOJMMD9_jkf-6" value="" style="aspect=fixed;html=1;points=[];align=center;image;fontSize=12;image=img/lib/azure2/networking/Virtual_Networks.svg;fillColor=none;" vertex="1" parent="1">
          <mxGeometry x="328.25" y="410" width="33.5" height="20" as="geometry" />
        </mxCell>
        <mxCell id="2nstRJqUEvOJMMD9_jkf-7" value="" style="aspect=fixed;html=1;points=[];align=center;image;fontSize=12;image=img/lib/azure2/networking/Virtual_Network_Gateways.svg;fillColor=none;" vertex="1" parent="1">
          <mxGeometry x="290" y="420" width="22.61" height="30" as="geometry" />
        </mxCell>
        <mxCell id="2nstRJqUEvOJMMD9_jkf-9" value="" style="aspect=fixed;html=1;points=[];align=center;image;fontSize=12;image=img/lib/azure2/compute/Virtual_Machine.svg;fillColor=none;" vertex="1" parent="1">
          <mxGeometry x="410" y="440" width="32.34" height="30" as="geometry" />
        </mxCell>
        <mxCell id="2nstRJqUEvOJMMD9_jkf-10" value="bridge.x-pressfeeders.com" style="text;html=1;align=center;verticalAlign=middle;resizable=0;points=[];autosize=1;strokeColor=none;fillColor=none;" vertex="1" parent="1">
          <mxGeometry x="346.17" y="480" width="160" height="20" as="geometry" />
        </mxCell>
        <mxCell id="2nstRJqUEvOJMMD9_jkf-11" value="" style="aspect=fixed;html=1;points=[];align=center;image;fontSize=12;image=img/lib/azure2/networking/Network_Security_Groups.svg;fillColor=none;" vertex="1" parent="1">
          <mxGeometry x="481.46000000000004" y="405" width="24.71" height="30" as="geometry" />
        </mxCell>
        <mxCell id="2nstRJqUEvOJMMD9_jkf-13" value="Internet" style="ellipse;shape=cloud;whiteSpace=wrap;html=1;fillColor=none;" vertex="1" parent="1">
          <mxGeometry x="680" y="415" width="120" height="80" as="geometry" />
        </mxCell>
        <mxCell id="2nstRJqUEvOJMMD9_jkf-15" value="" style="endArrow=classic;html=1;rounded=0;exitX=0.16;exitY=0.55;exitDx=0;exitDy=0;exitPerimeter=0;" edge="1" parent="1" source="2nstRJqUEvOJMMD9_jkf-13" target="2nstRJqUEvOJMMD9_jkf-2">
          <mxGeometry width="50" height="50" relative="1" as="geometry">
            <mxPoint x="750" y="620" as="sourcePoint" />
            <mxPoint x="800" y="570" as="targetPoint" />
          </mxGeometry>
        </mxCell>
        <mxCell id="2nstRJqUEvOJMMD9_jkf-16" value="Cloudflare" style="text;html=1;align=center;verticalAlign=middle;resizable=0;points=[];autosize=1;strokeColor=none;fillColor=none;" vertex="1" parent="1">
          <mxGeometry x="515" y="440" width="70" height="20" as="geometry" />
        </mxCell>
        <mxCell id="2nstRJqUEvOJMMD9_jkf-17" value="XPF user" style="text;html=1;align=center;verticalAlign=middle;resizable=0;points=[];autosize=1;strokeColor=none;fillColor=none;" vertex="1" parent="1">
          <mxGeometry x="-20" y="450" width="70" height="20" as="geometry" />
        </mxCell>
        <mxCell id="2nstRJqUEvOJMMD9_jkf-18" value="X" style="text;html=1;align=center;verticalAlign=middle;resizable=0;points=[];autosize=1;strokeColor=none;fillColor=none;strokeWidth=1;fontSize=19;fontColor=#CC0000;" vertex="1" parent="1">
          <mxGeometry x="205" y="445" width="30" height="30" as="geometry" />
        </mxCell>
        <mxCell id="2nstRJqUEvOJMMD9_jkf-19" value="" style="shape=link;html=1;rounded=0;width=-4;exitX=1;exitY=0.5;exitDx=0;exitDy=0;entryX=0;entryY=0.5;entryDx=0;entryDy=0;endArrow=none;" edge="1" parent="1" source="2nstRJqUEvOJMMD9_jkf-1" target="2nstRJqUEvOJMMD9_jkf-18">
          <mxGeometry width="100" relative="1" as="geometry">
            <mxPoint x="120" y="460.0000000000001" as="sourcePoint" />
            <mxPoint x="320" y="460.0000000000001" as="targetPoint" />
          </mxGeometry>
        </mxCell>
      </root>
    </mxGraphModel>
  </diagram>
</mxfile>
